<svg width="326" height="42" viewBox="0 0 326 42" fill="none" xmlns="http://www.w3.org/2000/svg">
<rect x="220" width="106" height="42" rx="8" fill="#1E252B"/>
<path d="M266.136 15.832L262.04 27H259.32L255.224 15.832H257.624L260.696 24.712L263.752 15.832H266.136ZM268.615 17.08C268.22 17.08 267.89 16.9573 267.623 16.712C267.367 16.456 267.239 16.1413 267.239 15.768C267.239 15.3947 267.367 15.0853 267.623 14.84C267.89 14.584 268.22 14.456 268.615 14.456C269.01 14.456 269.335 14.584 269.591 14.84C269.858 15.0853 269.991 15.3947 269.991 15.768C269.991 16.1413 269.858 16.456 269.591 16.712C269.335 16.9573 269.01 17.08 268.615 17.08ZM269.719 18.136V27H267.479V18.136H269.719ZM275.324 27.144C274.599 27.144 273.948 27.016 273.372 26.76C272.796 26.4933 272.337 26.136 271.996 25.688C271.665 25.24 271.484 24.744 271.452 24.2H273.708C273.751 24.5413 273.916 24.824 274.204 25.048C274.503 25.272 274.871 25.384 275.308 25.384C275.735 25.384 276.065 25.2987 276.3 25.128C276.545 24.9573 276.668 24.7387 276.668 24.472C276.668 24.184 276.519 23.9707 276.22 23.832C275.932 23.6827 275.468 23.5227 274.828 23.352C274.167 23.192 273.623 23.0267 273.196 22.856C272.78 22.6853 272.417 22.424 272.108 22.072C271.809 21.72 271.66 21.2453 271.66 20.648C271.66 20.1573 271.799 19.7093 272.076 19.304C272.364 18.8987 272.769 18.5787 273.292 18.344C273.825 18.1093 274.449 17.992 275.164 17.992C276.22 17.992 277.063 18.2587 277.692 18.792C278.321 19.3147 278.668 20.024 278.732 20.92H276.588C276.556 20.568 276.407 20.2907 276.14 20.088C275.884 19.8747 275.537 19.768 275.1 19.768C274.695 19.768 274.38 19.8427 274.156 19.992C273.943 20.1413 273.836 20.3493 273.836 20.616C273.836 20.9147 273.985 21.144 274.284 21.304C274.583 21.4533 275.047 21.608 275.676 21.768C276.316 21.928 276.844 22.0933 277.26 22.264C277.676 22.4347 278.033 22.7013 278.332 23.064C278.641 23.416 278.801 23.8853 278.812 24.472C278.812 24.984 278.668 25.4427 278.38 25.848C278.103 26.2533 277.697 26.5733 277.164 26.808C276.641 27.032 276.028 27.144 275.324 27.144ZM281.787 17.08C281.392 17.08 281.062 16.9573 280.795 16.712C280.539 16.456 280.411 16.1413 280.411 15.768C280.411 15.3947 280.539 15.0853 280.795 14.84C281.062 14.584 281.392 14.456 281.787 14.456C282.182 14.456 282.507 14.584 282.763 14.84C283.03 15.0853 283.163 15.3947 283.163 15.768C283.163 16.1413 283.03 16.456 282.763 16.712C282.507 16.9573 282.182 17.08 281.787 17.08ZM282.891 18.136V27H280.651V18.136H282.891ZM287.712 19.976V24.264C287.712 24.5627 287.781 24.7813 287.92 24.92C288.069 25.048 288.315 25.112 288.656 25.112H289.696V27H288.288C286.4 27 285.456 26.0827 285.456 24.248V19.976H284.4V18.136H285.456V15.944H287.712V18.136H289.696V19.976H287.712Z" fill="white" fill-opacity="0.55"/>
<rect width="42" height="42" rx="8" fill="#1E252B"/>
<path d="M26.8333 12.25C24.3833 12.25 22.225 13.475 21 15.4C19.775 13.475 17.6167 12.25 15.1667 12.25C11.3167 12.25 8.16667 15.4 8.16667 19.25C8.16667 26.1917 21 33.25 21 33.25C21 33.25 33.8333 26.25 33.8333 19.25C33.8333 15.4 30.6833 12.25 26.8333 12.25Z" fill="white" fill-opacity="0.38"/>
<rect x="54" width="42" height="42" rx="8" fill="#1E252B"/>
<path d="M77.5 23.25H76.25V22C76.25 21.6685 76.1183 21.3505 75.8839 21.1161C75.6495 20.8817 75.3315 20.75 75 20.75C74.6685 20.75 74.3505 20.8817 74.1161 21.1161C73.8817 21.3505 73.75 21.6685 73.75 22V23.25H72.5C72.1685 23.25 71.8505 23.3817 71.6161 23.6161C71.3817 23.8505 71.25 24.1685 71.25 24.5C71.25 24.8315 71.3817 25.1495 71.6161 25.3839C71.8505 25.6183 72.1685 25.75 72.5 25.75H73.75V27C73.75 27.3315 73.8817 27.6495 74.1161 27.8839C74.3505 28.1183 74.6685 28.25 75 28.25C75.3315 28.25 75.6495 28.1183 75.8839 27.8839C76.1183 27.6495 76.25 27.3315 76.25 27V25.75H77.5C77.8315 25.75 78.1495 25.6183 78.3839 25.3839C78.6183 25.1495 78.75 24.8315 78.75 24.5C78.75 24.1685 78.6183 23.8505 78.3839 23.6161C78.1495 23.3817 77.8315 23.25 77.5 23.25Z" fill="white" fill-opacity="0.38"/>
<path d="M84.375 15.8125H75.625L72.3375 11.8375C72.2212 11.6941 72.0745 11.5783 71.9081 11.4983C71.7417 11.4183 71.5596 11.3762 71.375 11.375H65.625C64.8083 11.365 64.0208 11.679 63.4351 12.2483C62.8494 12.8176 62.5132 13.5958 62.5 14.4125V29.5875C62.5132 30.4042 62.8494 31.1824 63.4351 31.7517C64.0208 32.321 64.8083 32.635 65.625 32.625H84.375C85.1917 32.635 85.9792 32.321 86.5649 31.7517C87.1506 31.1824 87.4868 30.4042 87.5 29.5875V18.85C87.4868 18.0333 87.1506 17.2551 86.5649 16.6858C85.9792 16.1165 85.1917 15.8025 84.375 15.8125ZM85 29.5625C84.9953 29.6392 84.9753 29.7142 84.9411 29.783C84.9069 29.8518 84.8593 29.9131 84.801 29.9632C84.7427 30.0133 84.675 30.0512 84.6019 30.0747C84.5287 30.0982 84.4515 30.1068 84.375 30.1H65.625C65.5485 30.1068 65.4713 30.0982 65.3982 30.0747C65.325 30.0512 65.2573 30.0133 65.199 29.9632C65.1407 29.9131 65.0931 29.8518 65.0589 29.783C65.0247 29.7142 65.0047 29.6392 65 29.5625V14.4125C65.0047 14.3358 65.0247 14.2608 65.0589 14.192C65.0931 14.1231 65.1407 14.0619 65.199 14.0118C65.2573 13.9617 65.325 13.9237 65.3982 13.9002C65.4713 13.8767 65.5485 13.8682 65.625 13.875H70.7875L74.0375 17.85C74.1538 17.9934 74.3005 18.1092 74.4669 18.1892C74.6333 18.2692 74.8154 18.3113 75 18.3125H84.375C84.4515 18.3057 84.5287 18.3142 84.6019 18.3377C84.675 18.3612 84.7427 18.3992 84.801 18.4493C84.8593 18.4994 84.9069 18.5606 84.9411 18.6295C84.9753 18.6983 84.9953 18.7733 85 18.85V29.5625Z" fill="white" fill-opacity="0.38"/>
</svg>
