<svg width="333" height="56" viewBox="0 0 333 56" fill="none" xmlns="http://www.w3.org/2000/svg">
<rect x="227" y="2" width="106" height="42" rx="8" fill="#FF6E30"/>
<path d="M273.136 17.832L269.04 29H266.32L262.224 17.832H264.624L267.696 26.712L270.752 17.832H273.136ZM275.615 19.08C275.22 19.08 274.89 18.9573 274.623 18.712C274.367 18.456 274.239 18.1413 274.239 17.768C274.239 17.3947 274.367 17.0853 274.623 16.84C274.89 16.584 275.22 16.456 275.615 16.456C276.01 16.456 276.335 16.584 276.591 16.84C276.858 17.0853 276.991 17.3947 276.991 17.768C276.991 18.1413 276.858 18.456 276.591 18.712C276.335 18.9573 276.01 19.08 275.615 19.08ZM276.719 20.136V29H274.479V20.136H276.719ZM282.324 29.144C281.599 29.144 280.948 29.016 280.372 28.76C279.796 28.4933 279.337 28.136 278.996 27.688C278.665 27.24 278.484 26.744 278.452 26.2H280.708C280.751 26.5413 280.916 26.824 281.204 27.048C281.503 27.272 281.871 27.384 282.308 27.384C282.735 27.384 283.065 27.2987 283.3 27.128C283.545 26.9573 283.668 26.7387 283.668 26.472C283.668 26.184 283.519 25.9707 283.22 25.832C282.932 25.6827 282.468 25.5227 281.828 25.352C281.167 25.192 280.623 25.0267 280.196 24.856C279.78 24.6853 279.417 24.424 279.108 24.072C278.809 23.72 278.66 23.2453 278.66 22.648C278.66 22.1573 278.799 21.7093 279.076 21.304C279.364 20.8987 279.769 20.5787 280.292 20.344C280.825 20.1093 281.449 19.992 282.164 19.992C283.22 19.992 284.063 20.2587 284.692 20.792C285.321 21.3147 285.668 22.024 285.732 22.92H283.588C283.556 22.568 283.407 22.2907 283.14 22.088C282.884 21.8747 282.537 21.768 282.1 21.768C281.695 21.768 281.38 21.8427 281.156 21.992C280.943 22.1413 280.836 22.3493 280.836 22.616C280.836 22.9147 280.985 23.144 281.284 23.304C281.583 23.4533 282.047 23.608 282.676 23.768C283.316 23.928 283.844 24.0933 284.26 24.264C284.676 24.4347 285.033 24.7013 285.332 25.064C285.641 25.416 285.801 25.8853 285.812 26.472C285.812 26.984 285.668 27.4427 285.38 27.848C285.103 28.2533 284.697 28.5733 284.164 28.808C283.641 29.032 283.028 29.144 282.324 29.144ZM288.787 19.08C288.392 19.08 288.062 18.9573 287.795 18.712C287.539 18.456 287.411 18.1413 287.411 17.768C287.411 17.3947 287.539 17.0853 287.795 16.84C288.062 16.584 288.392 16.456 288.787 16.456C289.182 16.456 289.507 16.584 289.763 16.84C290.03 17.0853 290.163 17.3947 290.163 17.768C290.163 18.1413 290.03 18.456 289.763 18.712C289.507 18.9573 289.182 19.08 288.787 19.08ZM289.891 20.136V29H287.651V20.136H289.891ZM294.712 21.976V26.264C294.712 26.5627 294.781 26.7813 294.92 26.92C295.069 27.048 295.315 27.112 295.656 27.112H296.696V29H295.288C293.4 29 292.456 28.0827 292.456 26.248V21.976H291.4V20.136H292.456V17.944H294.712V20.136H296.696V21.976H294.712Z" fill="white"/>
<g filter="url(#filter0_d_38_33)">
<rect x="7" y="2" width="42" height="42" rx="8" fill="#283036"/>
</g>
<path d="M33.8333 14.25C31.3833 14.25 29.225 15.475 28 17.4C26.775 15.475 24.6167 14.25 22.1667 14.25C18.3167 14.25 15.1667 17.4 15.1667 21.25C15.1667 28.1917 28 35.25 28 35.25C28 35.25 40.8333 28.25 40.8333 21.25C40.8333 17.4 37.6833 14.25 33.8333 14.25Z" fill="#FD3B41"/>
<rect x="61" y="2" width="42" height="42" rx="8" fill="#242C32"/>
<path d="M84.5 24.25H83.25V23C83.25 22.6685 83.1183 22.3505 82.8839 22.1161C82.6495 21.8817 82.3315 21.75 82 21.75C81.6685 21.75 81.3505 21.8817 81.1161 22.1161C80.8817 22.3505 80.75 22.6685 80.75 23V24.25H79.5C79.1685 24.25 78.8505 24.3817 78.6161 24.6161C78.3817 24.8505 78.25 25.1685 78.25 25.5C78.25 25.8315 78.3817 26.1495 78.6161 26.3839C78.8505 26.6183 79.1685 26.75 79.5 26.75H80.75V28C80.75 28.3315 80.8817 28.6495 81.1161 28.8839C81.3505 29.1183 81.6685 29.25 82 29.25C82.3315 29.25 82.6495 29.1183 82.8839 28.8839C83.1183 28.6495 83.25 28.3315 83.25 28V26.75H84.5C84.8315 26.75 85.1495 26.6183 85.3839 26.3839C85.6183 26.1495 85.75 25.8315 85.75 25.5C85.75 25.1685 85.6183 24.8505 85.3839 24.6161C85.1495 24.3817 84.8315 24.25 84.5 24.25Z" fill="white" fill-opacity="0.55"/>
<path d="M91.375 16.8125H82.625L79.3375 12.8375C79.2212 12.6941 79.0745 12.5783 78.9081 12.4983C78.7417 12.4183 78.5596 12.3762 78.375 12.375H72.625C71.8083 12.365 71.0208 12.679 70.4351 13.2483C69.8494 13.8176 69.5132 14.5958 69.5 15.4125V30.5875C69.5132 31.4042 69.8494 32.1824 70.4351 32.7517C71.0208 33.321 71.8083 33.635 72.625 33.625H91.375C92.1917 33.635 92.9792 33.321 93.5649 32.7517C94.1506 32.1824 94.4868 31.4042 94.5 30.5875V19.85C94.4868 19.0333 94.1506 18.2551 93.5649 17.6858C92.9792 17.1165 92.1917 16.8025 91.375 16.8125ZM92 30.5625C91.9953 30.6392 91.9753 30.7142 91.9411 30.783C91.9069 30.8518 91.8593 30.9131 91.801 30.9632C91.7427 31.0133 91.675 31.0512 91.6019 31.0747C91.5287 31.0982 91.4515 31.1068 91.375 31.1H72.625C72.5485 31.1068 72.4713 31.0982 72.3982 31.0747C72.325 31.0512 72.2573 31.0133 72.199 30.9632C72.1407 30.9131 72.0931 30.8518 72.0589 30.783C72.0247 30.7142 72.0047 30.6392 72 30.5625V15.4125C72.0047 15.3358 72.0247 15.2608 72.0589 15.192C72.0931 15.1231 72.1407 15.0619 72.199 15.0118C72.2573 14.9617 72.325 14.9237 72.3982 14.9002C72.4713 14.8767 72.5485 14.8682 72.625 14.875H77.7875L81.0375 18.85C81.1538 18.9934 81.3005 19.1092 81.4669 19.1892C81.6333 19.2692 81.8154 19.3113 82 19.3125H91.375C91.4515 19.3057 91.5287 19.3142 91.6019 19.3377C91.675 19.3612 91.7427 19.3992 91.801 19.4493C91.8593 19.4994 91.9069 19.5606 91.9411 19.6295C91.9753 19.6983 91.9953 19.7733 92 19.85V30.5625Z" fill="white" fill-opacity="0.55"/>
<defs>
<filter id="filter0_d_38_33" x="0" y="0" width="56" height="56" filterUnits="userSpaceOnUse" color-interpolation-filters="sRGB">
<feFlood flood-opacity="0" result="BackgroundImageFix"/>
<feColorMatrix in="SourceAlpha" type="matrix" values="0 0 0 0 0 0 0 0 0 0 0 0 0 0 0 0 0 0 127 0" result="hardAlpha"/>
<feMorphology radius="3" operator="erode" in="SourceAlpha" result="effect1_dropShadow_38_33"/>
<feOffset dy="5"/>
<feGaussianBlur stdDeviation="5"/>
<feColorMatrix type="matrix" values="0 0 0 0 0.0705882 0 0 0 0 0.0705882 0 0 0 0 0.0705882 0 0 0 0.15 0"/>
<feBlend mode="normal" in2="BackgroundImageFix" result="effect1_dropShadow_38_33"/>
<feBlend mode="normal" in="SourceGraphic" in2="effect1_dropShadow_38_33" result="shape"/>
</filter>
</defs>
</svg>
