<svg width="190" height="58" viewBox="0 0 190 58" fill="none" xmlns="http://www.w3.org/2000/svg">
<rect x="66" width="58" height="58" rx="8" fill="#1E252B"/>
<path d="M94.9985 22.0654C93.159 22.0654 91.3948 22.7962 90.094 24.0969C88.7933 25.3977 88.0625 27.1619 88.0625 29.0014C88.0625 30.841 88.7933 32.6052 90.094 33.9059C91.3948 35.2067 93.159 35.9374 94.9985 35.9374C96.838 35.9374 98.6022 35.2067 99.903 33.9059C101.204 32.6052 101.935 30.841 101.935 29.0014C101.935 27.1619 101.204 25.3977 99.903 24.0969C98.6022 22.7962 96.838 22.0654 94.9985 22.0654ZM94.9985 33.5059C93.8034 33.5059 92.6573 33.0312 91.8123 32.1862C90.9672 31.3411 90.4925 30.195 90.4925 28.9999C90.4925 27.8049 90.9672 26.6587 91.8123 25.8137C92.6573 24.9687 93.8034 24.4939 94.9985 24.4939C96.1936 24.4939 97.3397 24.9687 98.1847 25.8137C99.0298 26.6587 99.5045 27.8049 99.5045 28.9999C99.5045 30.195 99.0298 31.3411 98.1847 32.1862C97.3397 33.0312 96.1936 33.5059 94.9985 33.5059Z" fill="white" fill-opacity="0.78"/>
<path d="M102.209 23.4275C103.102 23.4275 103.826 22.7035 103.826 21.8105C103.826 20.9174 103.102 20.1935 102.209 20.1935C101.316 20.1935 100.592 20.9174 100.592 21.8105C100.592 22.7035 101.316 23.4275 102.209 23.4275Z" fill="white" fill-opacity="0.78"/>
<path d="M107.8 20.1664C107.452 19.2697 106.922 18.4554 106.242 17.7755C105.561 17.0957 104.747 16.5654 103.85 16.2184C102.801 15.8245 101.692 15.6115 100.571 15.5884C99.1265 15.5254 98.669 15.5074 95.006 15.5074C91.343 15.5074 90.8735 15.5074 89.441 15.5884C88.3211 15.6103 87.2131 15.8233 86.165 16.2184C85.2679 16.5649 84.4532 17.0952 83.773 17.775C83.0929 18.4549 82.5623 19.2695 82.2155 20.1664C81.8215 21.2159 81.6089 22.3247 81.587 23.4454C81.5225 24.8884 81.503 25.3459 81.503 29.0104C81.503 32.6734 81.503 33.1399 81.587 34.5754C81.6095 35.6974 81.821 36.8044 82.2155 37.8559C82.5633 38.7526 83.0943 39.5668 83.7747 40.2466C84.455 40.9264 85.2696 41.4568 86.1665 41.8039C87.2127 42.2137 88.3211 42.442 89.444 42.4789C90.8885 42.5419 91.346 42.5614 95.009 42.5614C98.672 42.5614 99.1415 42.5614 100.574 42.4789C101.695 42.4562 102.803 42.2437 103.853 41.8505C104.75 41.5027 105.564 40.9719 106.244 40.2919C106.924 39.6119 107.455 38.7976 107.803 37.9009C108.197 36.851 108.409 35.7439 108.431 34.622C108.496 33.1789 108.515 32.7214 108.515 29.0569C108.515 25.3924 108.515 24.9274 108.431 23.4919C108.414 22.3554 108.2 21.2303 107.8 20.1664ZM105.973 34.4644C105.963 35.3289 105.805 36.1853 105.506 36.9964C105.281 37.5798 104.936 38.1094 104.494 38.5515C104.051 38.9935 103.521 39.338 102.938 39.5629C102.136 39.8606 101.289 40.0184 100.433 40.0294C99.008 40.0954 98.606 40.1119 94.952 40.1119C91.295 40.1119 90.9215 40.1119 89.4695 40.0294C88.6144 40.019 87.7675 39.8612 86.966 39.5629C86.3805 39.3394 85.8485 38.9955 85.4043 38.5534C84.9602 38.1113 84.6138 37.5809 84.3875 36.9964C84.0927 36.194 83.935 35.3477 83.921 34.4929C83.8565 33.0679 83.8415 32.6659 83.8415 29.0119C83.8415 25.3564 83.8415 24.9829 83.921 23.5294C83.9307 22.6655 84.0885 21.8096 84.3875 20.9989C84.845 19.8154 85.7825 18.8839 86.966 18.4309C87.7679 18.1342 88.6145 17.9764 89.4695 17.9644C90.896 17.8999 91.2965 17.8819 94.952 17.8819C98.6075 17.8819 98.9825 17.8819 100.433 17.9644C101.289 17.9747 102.136 18.1326 102.938 18.4309C103.521 18.6564 104.051 19.0012 104.493 19.4435C104.936 19.8857 105.281 20.4156 105.506 20.9989C105.801 21.8014 105.959 22.6477 105.973 23.5024C106.037 24.9289 106.054 25.3294 106.054 28.9849C106.054 32.6389 106.054 33.0319 105.989 34.466H105.973V34.4644Z" fill="white" fill-opacity="0.78"/>
<rect x="132" width="58" height="58" rx="8" fill="#1E252B"/>
<path d="M172.449 22.9956C172.469 23.2581 172.469 23.5191 172.469 23.7801C172.469 31.7676 166.389 40.9716 155.279 40.9716C151.856 40.9716 148.676 39.9801 146 38.2581C146.486 38.3136 146.954 38.3331 147.46 38.3331C150.179 38.3396 152.821 37.4303 154.961 35.7516C153.7 35.7287 152.478 35.3128 151.465 34.5617C150.452 33.8106 149.699 32.7619 149.31 31.5621C149.684 31.6176 150.059 31.6551 150.452 31.6551C150.993 31.6551 151.538 31.5801 152.043 31.4496C150.675 31.1733 149.445 30.4316 148.561 29.3506C147.678 28.2696 147.197 26.916 147.199 25.5201V25.4451C148.004 25.8936 148.938 26.1741 149.928 26.2116C149.099 25.6604 148.419 24.9126 147.949 24.0348C147.479 23.1569 147.233 22.1763 147.234 21.1806C147.234 20.0586 147.533 19.0296 148.056 18.1326C149.575 20.0001 151.468 21.5279 153.615 22.6171C155.761 23.7062 158.112 24.3324 160.516 24.4551C160.422 24.0051 160.365 23.5386 160.365 23.0706C160.365 22.277 160.521 21.4912 160.825 20.7579C161.128 20.0247 161.573 19.3585 162.134 18.7973C162.695 18.2362 163.362 17.7912 164.095 17.4877C164.828 17.1842 165.614 17.0282 166.407 17.0286C168.147 17.0286 169.718 17.7576 170.822 18.9366C172.175 18.675 173.472 18.1812 174.656 17.4771C174.205 18.8733 173.261 20.0572 172 20.8071C173.199 20.6702 174.372 20.3547 175.478 19.8711C174.652 21.0757 173.628 22.1321 172.449 22.9956Z" fill="white" fill-opacity="0.78"/>
<rect width="58" height="58" rx="8" fill="#1E252B"/>
<path d="M30.9791 41.7458V30.1347H34.8962L35.4784 25.5887H30.9791V22.693C30.9791 21.3812 31.3446 20.483 33.2273 20.483H35.613V16.4299C34.4522 16.3055 33.2855 16.2455 32.1181 16.25C28.6557 16.25 26.2786 18.3637 26.2786 22.2439V25.5802H22.387V30.1262H26.2871V41.7458H30.9791Z" fill="white" fill-opacity="0.78"/>
</svg>
